# xmcd
#
# Track frame offsets:
#	150
#	11967
#	24327
#	38052
#	48432
#	60015
#	71665
#	85862
#	96215
#	106415
#	118990
#	131112
#	142985
#	156185
#
# Disc length: 2206
#
# Revision: 2
# Processed by: cddbd v1.5.1PL0 Copyright (c) Steve Scherf et al.
# Submitted via: CDex 1.50Beta7
# Normalized: r1:TDELIM( - )
#
DISCID=b9089c0e
DTITLE=Various Artist - Twentieth Century Box - Country and Western
DYEAR=1900
DGENRE=Country
TTITLE0=Don Gibson - I Can´t Stop Loving You
TTITLE1=Lynn Anderson - Stand By Your Man
TTITLE2=Willie Nelson - A Moment Isn´t Very Long
TTITLE3=Johnny Ray - Hernando´s Hideaway
TTITLE4=Dolly Parton - Making Believe
TTITLE5=Roger Miller - Little Green Apples
TTITLE6=Freddy Fender - Wasted Days And Waysted Nights
TTITLE7=Rick Nelson - Hello Mary Lou
TTITLE8=Carl Perkins - Daddy Sang The Bass
TTITLE9=Claude King - Wolverton Mountain
TTITLE10=Frankie Lane - High Noon
TTITLE11=Skeeter Davis - End Of The World
TTITLE12=Lynn Anderson - Rose Garden
TTITLE13=Hollywood Studio Orchestra - Yankee Doodle
EXTD=
EXTT0=
EXTT1=
EXTT2=
EXTT3=
EXTT4=
EXTT5=
EXTT6=
EXTT7=
EXTT8=
EXTT9=
EXTT10=
EXTT11=
EXTT12=
EXTT13=
PLAYORDER=
